<?xml version="1.0" encoding="utf-8"?>
<!-- Generator: Adobe Illustrator 23.0.1, SVG Export Plug-In . SVG Version: 6.00 Build 0)  -->
<svg version="1.1" id="レイヤー_1" xmlns="http://www.w3.org/2000/svg" xmlns:xlink="http://www.w3.org/1999/xlink" x="0px"
	 y="0px" viewBox="0 0 1505.2 208.2" style="enable-background:new 0 0 1505.2 208.2;" xml:space="preserve">
<style type="text/css">
	.st0{fill:#82A680;}
	.st1{fill:#036232;}
</style>
<g>
	<path class="st0" d="M60.9,48.2c-5.7-11.7,0.6-20.9,13.9-22.6c10-1.3,19.5,0.5,28.9,3.5c2.2,0.7,4.1,1.3,3-2.4
		c-4.6-15.4,0.7-23.5,17-26.1c13-2,24.7,0.9,36.3,7c6.9,3.7,13.1,8.1,18.6,13.1c12.4,11.5,22.9,24.5,28.3,41.2
		c2.2,6.9,4.5,13.7,5.9,20.8c1.6,8.3,2,16.7,1.5,25.1c-0.7,12.1-3.4,24-7.8,35.2c-8.4,21.1-23,37.2-42.2,49.2
		c-14,8.8-29.3,13.8-45.6,15.9c-0.3,0-0.6-0.2-1.6-0.7c2.7-1.2,4.8-2.6,7.2-3.2c14.9-4.1,27.5-12.3,37.5-23.6
		c9.4-10.7,15.2-23.4,16.3-38.2c0.8-11.5-0.8-22.1-6.5-32c-5.1-8.8-12.9-15.2-21.3-20.5c-12.6-7.9-26.3-13.3-40.7-17
		C96.5,69.5,83.9,65,71.8,59c-3.2-1.6-5.3-2.6-8.5-5.4C63,51.6,62.7,50.2,60.9,48.2z"/>
	<path class="st1" d="M60.9,48.2c1.8,2,2.1,3.3,2.4,5.4c-8.7,2.5-16.4,8.3-20.6,16.2c-2.4,4.5-1.9,14.8,2.8,20.2
		c8.2,9.4,19,14,30.4,17.8c18.9,6.4,38.9,8.7,58,14.2c5.9,1.7,11.8,3.6,15.9,8.7c3.8,4.6,3.5,8.2-1.2,11.9
		c-5.8,4.5-12.7,4.3-19.5,4.4c-6.3,0-12.5-1-18.7-2.5c-2.5-0.6-3.3,0.1-2.3,2.9c2.6,6.7-0.8,12.9-7.8,14.9
		c-11.9,3.4-23.7,2.1-35.3-0.9c-6.2-1.6-12.5-3.2-18.3-6c-17-8.2-32.8-18-41.5-35.5c-9.2-18.6-6.3-37,10.7-51.3
		C26.7,59.3,39.6,54,53.2,50.2C55.8,49.5,58.3,48.9,60.9,48.2z"/>
</g>
<g>
	<path d="M314.8,159.3h80.5v-6.6h-31.1V88.4h27.5v-7.5h-27.5v-41c0-1.6,0-3.6,0-4.2h-14.2c0,4.2,0.2,45.1,0.2,45.1h-25.6v7.5h25.6
		v64.3h-35.5V159.3z"/>
	<path d="M263.6,124l5.5,4.6c12.3-7.9,19.1-13.9,21.9-16.5v52.2h14.5V110c0.3,0.2,11.5,8.4,17.8,11.3c5.3-4.8,6.7-7,6.7-7
		c-7-4.2-17.2-12.5-22.7-19.8c7.3-10.1,10.5-16.1,14.7-27.5h-17.5V41.5c0-1.6,0-3.1,0-3.7l-13.7,0.1c0,1.6,0,3,0,8v21.2h-24.5v6.1
		h36.9C296.1,93.4,283,111,263.6,124z"/>
	<rect x="435" y="79.2" width="70.6" height="8.2"/>
	<path d="M409.3,113.6h40.6c-6.2,15.1-20.5,37.4-21.2,39.1c-2.2,0-10.9,0-12.5,0l0,6.7c2.2,0,64.6,0,91.3,0.1c0.9,2.3,1.1,3.3,2,4.7
		c0.6,0.2,2.1,0.1,2.8-0.1c2.3-0.8,13.9-9.4,13.9-9.4c-13.7-16.8-36.7-35.4-37.4-36c-4.8,0.7-6.3,6.1-6.3,6.1
		c3.6,4,11.3,9.6,20.9,27.9c-21.5,0-29.7,0-60.8,0.1c0.4-0.5,0.3-2.1,1.2-3.2c5.2-6.4,11.9-14.2,24.8-36h62.8v-6.2H409.3V113.6z"/>
	<path d="M403.6,85.4l4.7,5.5c20.7-6,45.3-18.7,61.2-41.2c17.1,21.6,35,31.6,62,41.3l4.8-7.1c-23.7-9.7-44.9-24.3-56.4-47.4h-20.8
		C449.2,57.8,424.1,76.2,403.6,85.4z"/>
	<rect x="1404.8" y="79.2" width="70.6" height="8.2"/>
	<path d="M1379.1,113.6h40.6c-6.2,15.1-20.5,37.4-21.2,39.1c-2.2,0-10.9,0-12.5,0l0,6.7c2.2,0,64.6,0,91.3,0.1
		c0.9,2.3,1.1,3.3,2,4.7c0.6,0.2,2.1,0.1,2.8-0.1c2.3-0.8,13.9-9.4,13.9-9.4c-13.7-16.8-36.7-35.4-37.4-36c-4.8,0.7-6.3,6.1-6.3,6.1
		c3.6,4,11.3,9.6,20.9,27.9c-21.5,0-29.7,0-60.8,0.1c0.4-0.5,0.3-2.1,1.2-3.2c5.2-6.4,11.9-14.2,24.8-36h62.8v-6.2h-122.1V113.6z"/>
	<path d="M1505.2,84c-23.7-9.7-43.9-24.3-55.4-47.4H1429c-10,21.2-35.1,39.6-55.6,48.8l4.7,5.5c20.7-6,45.3-18.7,61.2-41.2
		c17.1,21.6,35,31.6,62,41.3L1505.2,84"/>
	<rect x="591.8" y="40.5" width="81.2" height="8.2"/>
	<path d="M600.1,59.9V94h63.5V59.9H600.1z M650,88.4h-35.6V66.6H650V88.4z"/>
	<path d="M595.6,104.9v4.2c-5.8-5-11.2-12.2-15.3-18.7c9.8-14,13.2-23,15.3-29.3h-15.9c0,0,0-24,0-25h-13.6c0,4.1,0,25,0,25h-20.2
		v6.2h31.1c-3.2,13.2-16.6,37.2-34.5,51l4.7,4.9c4.3-3.2,9.8-7.2,17.6-14.7v55.7h13.7v-60.4c3.2,3.3,8.7,10.1,11.1,11
		c2.8,0.8,6.1,0.6,6.1,0.6v43.1h73.5v-53.6H595.6z M655.2,151.9l-16-0.1l0-17.3l10.5,0l0-5.7l-10.6-0.1l0.1-13.3l-13.5-0.1l0,13.2
		l-8.6,0.3l-2.3,5.9l11,0.1l0,17.2h-17v-40.6h46.4V151.9z"/>
	<path d="M724.7,158.8h87.2v-6.2h-29.1l-0.1-63.2h23.7v-6.7h-23.7c0,0,0.1-46.2,0.1-46.7h-14.2c0,2.3,0.1,116.6,0.1,116.6h-12.4
		V79.5c0-2,0-4,0-5.1l-14.2,0c0,4.3,0,6,0,8.9v69.3h-17.5V158.8z"/>
	<path d="M679.4,116.4l5.7,6.3c4.4-2.4,9.6-5,18-11.8v53.4h14.1v-58.9c5.7,5.7,9.6,9,16.8,13.9l5.6-6.6
		c-9.1-7.8-16.2-16.4-18.1-19.8c13.4-15.9,17.9-27,20.1-32.3h-23.3c0,0-0.1-23.7-0.1-24.4h-13.7c0,2.8,0,24.5,0,24.5h-20.5l0.1,6.4
		h38.4C717.6,81.1,703.9,101.3,679.4,116.4z"/>
	<path d="M852.1,151.8c-1,1.4,0.5,6.7,0.5,6.7c1.5,0,61.9,0,83.4,0c1.6,2.6,1.4,2.7,2.2,4.8l13.4-8.6c-6-10.7-22.2-31.3-34.3-42
		l-6.3,3.6c18.4,26.1,19.7,31.7,21.4,34.9c-16.8,0-34.3-0.1-58.9-0.1c11.1-14.4,23.4-31.5,32.1-47.4h43.3l0.3-8.7h-40.6l-0.1-27.9
		h35.8l0.2-7.7h-35.8c0,0-0.2-21.9-0.2-23.5l-15-0.1c0,1.9,0.2,23.6,0.2,23.6h-34.9l-0.2,7.7h34.9l0.1,27.9h-40.8l-0.3,8.7h36.2
		c-6,13.2-17.8,38.5-26.7,48.1C854,151.8,853.1,151.8,852.1,151.8z"/>
	<path d="M860,50.4c-11.7-6.9-17.3-10-28.8-14.9l-4,5.7c6.3,4.5,17.1,14.8,22.2,20.9L860,50.4z"/>
	<path d="M820.8,153.4c0,0,13.1,10.2,13.6,10.5c7.7-11,19.5-46.8,22.5-54.5l-7.5-4.3C841.9,122.7,829.3,145.3,820.8,153.4z"/>
	<path d="M819,77.1c8.4,6.7,13.5,11.9,22.9,23l9.6-13.3c-1-0.6-16.5-10.6-28.5-15.5L819,77.1z"/>
	<path d="M958.9,155l5.6,6.2c32.4-11.4,43.7-20.1,60.1-49.4c11.7,21.8,26.2,41.8,62,49.6l3.7-6.2c0,0-29.5-13.4-39.8-27.2
		c-12.8-14.5-17.6-34.1-18.2-61.5c0,0,0-29.9,0-31h-15.8c0,3-0.2,33-0.2,33c-1.9,38-7.8,48.2-20.7,62.6
		C982.5,146,966.8,151.9,958.9,155z"/>
	<polygon points="1222.2,115.2 1222.1,107.7 1104.9,107.7 1105.1,115.2 	"/>
	<polygon points="1099.7,158 1228.3,158 1228.3,150.9 1171.2,150.9 1171.2,135.9 1212.1,135.9 1212.1,129.9 1171.2,129.9 
		1171.2,119.7 1157.4,119.7 1157.4,129.9 1115.5,129.9 1115.2,135.9 1157.4,135.9 1157.4,150.9 1099.7,150.9 	"/>
	<path d="M1173.1,40.7v58.5h48V40.7H1173.1z M1207.8,92.2h-20.9V47.5h20.9V92.2z"/>
	<path d="M1099.8,40.7V47h11.5v45.2c-7.1,0.8-8.3,1.2-12.3,1.4l3.7,8.9c0.8,1,2.1,1.5,2.5,1.5c1.4,0,36.9-8.2,43.6-9.6v11.1h12.4V47
		h12.1v-6.2H1099.8z M1148.7,87c-11.7,2.1-25.1,2.9-25.1,2.9v-9.5l18.1-0.8l0-7.5l-18,0.5v-8.5l18.2-0.3l0-7.1l-18.1,0.1v-9.7h25
		C1148.7,47.1,1148.7,83.2,1148.7,87z"/>
	<path d="M1322.8,85.2c10.3-10.7,14.1-16.2,16.4-20.6c-2.6-1.6-8.4-4.9-8.4-4.9l24.2,0l0-7.4h-47.3c0,0,0-15.2,0-16.8h-14.4
		c0,3.2,0,16.8,0,16.8h-47.4l0,7.3l17.4,0l-0.8,2.8c6.5,10.8,7.9,16.2,9.3,22.7h-35.2v6.9h127.7v-6.9H1322.8z M1316,85.2h-34.6
		l7.2-5.5c-5-7.8-8.2-12.4-17.9-20l51.3,0.1c-3,11.7-5.8,18-8.7,23L1316,85.2z"/>
	<path d="M1254.7,103.1v55.2h90.8v-55.2H1254.7z M1330.6,152.4l-61.6-0.2v-17.9l54.5-0.6c0,0,0.6-2.5-0.9-6.5
		c-2.2,0-53.6-0.1-53.6-0.1v-17.7h61.6V152.4z"/>
	<path d="M673.1,46.8"/>
</g>
</svg>
